<svg version="1.2" baseProfile="tiny" xmlns="http://www.w3.org/2000/svg" width="275" height="66" viewBox="0 0 275 66">
  <path fill="none" d="M120.036 58.417l-1.5 3.283h2.931M78.13 56.949c-1.004 0-1.852.349-2.544 1.048-.692.69-1.038 1.546-1.038 2.562 0 1.065.358 1.942 1.075 2.63.712.687 1.535 1.031 2.469 1.031 1.013 0 1.868-.351 2.563-1.051.696-.706 1.045-1.568 1.045-2.586 0-1.027-.344-1.89-1.032-2.586-.683-.699-1.529-1.048-2.538-1.048z"/>
  <path fill="#221F1F" d="M20.761 20.938c.002 6.27 2.231 11.342 6.623 15.075 3.97 3.372 8.906 5.083 14.67 5.083 3.115 0 6.4-.58 9.763-1.722 4.508-1.534 5.431-2.452 5.431-3.355V24.693c0-1.613.314-2.705.92-3.168.198-.159.78-.441 2.452-.552l.648-.042V18.52H45.211v2.413l.65.041c2.558.159 3.419.6 3.705.849.21.185.703.906.703 3.63v9.169c0 .439-.099.757-.294.947-.118.113-.576.439-2.293 1.003-.803.267-1.659.465-2.547.588-.898.127-1.688.19-2.35.19-3.884 0-7.194-1.431-9.835-4.249-2.654-2.832-4.001-6.853-4.001-11.948 0-6.204 1.347-10.696 4-13.35 2.652-2.653 5.762-3.998 9.246-3.998 3.468 0 6.199 1.106 8.342 3.372 1.196 1.304 2.382 3.336 3.525 6.04l.18.424h2.499L56.24.141h-2.4l-.176.432c-.205.501-.444.881-.712 1.128-.12.11-.447.294-1.285.294-.102-.002-.66-.08-3.521-.899-2.208-.635-4.484-.955-6.768-.955-6.343 0-11.51 2.206-15.356 6.556-3.489 3.931-5.259 8.716-5.261 14.218v.023zm88.92 13.643c1.269-2.322 1.911-5.564 1.911-9.635V9.967c0-3.719.544-4.939.868-5.333.386-.471 1.379-1.09 3.909-1.368l.619-.066V.815H102.28v2.391l.626.061c1.889.187 3.215.631 3.834 1.289.351.372.936 1.569.936 5.412v14.979c0 3.545-.429 6.18-1.273 7.833-1.497 2.923-4.392 4.344-8.853 4.344-4.043 0-6.699-1.383-8.117-4.221-.774-1.581-1.166-3.851-1.166-6.748V7.747c0-2.495.471-3.292.754-3.544.3-.271 1.204-.751 3.882-.934l.647-.045V.815H75.836v2.404l.64.049c2.627.203 3.518.688 3.815.959.277.253.744 1.047.744 3.52v17.986c0 3.664.644 6.673 1.913 8.936 2.369 4.263 6.848 6.426 13.31 6.426 6.538 0 11.054-2.192 13.423-6.514zm57.194-5.411h-2.952l-.186.41c-1.401 3.105-2.972 5.075-4.664 5.851-1.756.806-4.564 1.216-8.35 1.216-4.39 0-5.848-.154-6.299-.283-.143-.042-.579-.167-.579-1.357V21.452h8.187c2.917 0 3.856.54 4.159.863.399.426.98 1.481 1.482 4.083l.108.562h2.616V12.281h-2.62l-.104.567c-.479 2.586-1.058 3.642-1.457 4.073-.301.326-1.245.868-4.185.868h-8.187V5.641c0-.872.146-1.1.142-1.1.001-.001.198-.146 1.024-.146h7.835c3.986 0 5.518.532 6.098.976.572.438 1.371 1.575 1.935 4.503l.107.562h2.744l-.23-9.621h-31.946v2.408l.644.045c2.563.181 3.41.679 3.687.962.271.275.729 1.1.729 3.517v25.601c0 2.636-.487 3.333-.697 3.51-.29.246-1.164.7-3.742.973l-.62.064v2.386h32.335l2.986-11.111zM205.452.53c-.125.514-.292.907-.498 1.163-.127.156-.468.246-.914.246-.096-.008-.586-.1-2.953-.929-1.907-.668-3.575-1.008-4.958-1.009h-.021c-3.354.002-6.096 1.044-8.148 3.098-2.056 2.056-3.098 4.66-3.098 7.74 0 2.358.882 4.537 2.629 6.484.917.997 2.154 1.99 3.68 2.957l4.907 3.062c2.769 1.727 4.595 3.026 5.424 3.858 1.229 1.265 1.823 2.707 1.823 4.408 0 1.886-.577 3.305-1.767 4.336-1.219 1.06-2.628 1.574-4.304 1.574-3.201 0-5.809-1.235-7.973-3.774-1.251-1.47-2.363-3.481-3.302-5.977l-.17-.45h-2.598l1.907 13.641h2.461l.092-.585c.062-.389.187-.745.383-1.088.101-.178.354-.268.744-.27.099.01.611.104 3.118.975 2.004.699 3.956 1.052 5.809 1.052 3.697 0 6.789-1.081 9.184-3.212 2.421-2.151 3.649-4.869 3.649-8.078 0-2.393-.695-4.503-2.07-6.278-1.342-1.685-3.656-3.542-6.873-5.524l-5.057-3.122c-1.815-1.116-3.166-2.192-4.017-3.205-.794-.928-1.179-2.021-1.179-3.343 0-1.438.488-2.525 1.494-3.32 1.052-.835 2.26-1.24 3.686-1.24 1.869 0 3.801.694 5.739 2.063 1.921 1.357 3.349 3.824 4.239 7.333l.131.523h2.687L207.932 0h-2.352l-.128.53zm39.844 17.42l-5.054-3.123c-1.818-1.115-3.169-2.193-4.02-3.204-.794-.928-1.18-2.021-1.18-3.343 0-1.439.489-2.525 1.495-3.32 1.051-.835 2.258-1.241 3.686-1.241 1.868 0 3.801.695 5.741 2.064 1.921 1.357 3.347 3.824 4.239 7.333l.131.523h2.686L251.613 0h-2.35l-.13.529c-.125.515-.294.906-.498 1.163-.128.157-.468.247-.915.247-.095-.008-.584-.1-2.953-.93C242.855.339 241.186 0 239.802 0c-3.36 0-6.105 1.042-8.162 3.098-2.056 2.056-3.098 4.661-3.098 7.74 0 2.358.883 4.537 2.629 6.484.917.996 2.155 1.989 3.68 2.957l4.907 3.062c2.769 1.726 4.596 3.026 5.425 3.857 1.227 1.266 1.824 2.707 1.824 4.407 0 1.887-.578 3.306-1.769 4.336-1.218 1.061-2.625 1.575-4.303 1.575-3.201 0-5.811-1.235-7.974-3.775-1.251-1.469-2.363-3.479-3.303-5.977l-.168-.45h-2.599l1.908 13.641h2.46l.094-.585c.062-.389.186-.745.38-1.088.102-.179.357-.268.745-.27.097.01.612.104 3.118.975 2.004.699 3.957 1.052 5.807 1.052 3.7 0 6.792-1.081 9.186-3.212 2.421-2.151 3.649-4.87 3.649-8.078 0-2.393-.695-4.503-2.07-6.277-1.34-1.682-3.653-3.541-6.872-5.522z"/>
  <path d="M61.62 55.761v9.652h4.294v-1.371h-2.838v-8.281m15.073-.181c-1.392 0-2.584.487-3.576 1.463-.997.975-1.495 2.142-1.495 3.501 0 1.545.546 2.796 1.639 3.751.992.862 2.11 1.294 3.357 1.294 1.409 0 2.612-.486 3.606-1.458.994-.966 1.489-2.144 1.489-3.531 0-1.38-.495-2.562-1.482-3.545-.983-.984-2.163-1.475-3.538-1.475zm2.506 7.589c-.695.7-1.55 1.051-2.563 1.051-.934 0-1.757-.345-2.469-1.031-.716-.688-1.075-1.564-1.075-2.63 0-1.016.346-1.871 1.038-2.562.692-.699 1.54-1.048 2.544-1.048 1.009 0 1.854.349 2.538 1.048.688.696 1.032 1.559 1.032 2.586 0 1.018-.349 1.88-1.045 2.586zm13.661 1.051c-.575 0-1.014-.209-1.313-.626-.167-.217-.284-.608-.35-1.175l-1.476.325c.133.899.47 1.6 1.007 2.097.547.499 1.238.749 2.077.749.883 0 1.623-.293 2.219-.877.591-.579.887-1.313.887-2.202 0-.663-.18-1.224-.543-1.681-.362-.457-.936-.843-1.719-1.16l-.963-.394c-.7-.288-1.052-.668-1.052-1.139 0-.342.134-.624.4-.852.267-.229.603-.343 1.007-.343.329 0 .598.066.806.2.2.116.41.365.632.75l1.181-.701c-.625-1.079-1.493-1.619-2.607-1.619-.826 0-1.515.246-2.069.737-.554.488-.832 1.095-.832 1.817 0 1.074.661 1.891 1.981 2.448l.932.388c.241.104.45.214.625.328.176.113.317.238.429.369.11.131.191.274.244.432.052.156.078.327.078.515 0 .467-.15.853-.45 1.155-.3.306-.677.459-1.131.459zm23.613-1.152h4.132l1.013 2.345h1.595l-4.608-10.259-4.776 10.259h1.568l1.076-2.345zm2.107-4.651l1.432 3.283h-2.932l1.5-3.283zm19.536-2.656v6.708l-7.04-7.365v10.309h1.456v-6.758l7.04 7.345V55.761m13.504 9.834c1.385 0 2.522-.505 3.421-1.514.394-.449.677-.932.843-1.45.171-.559.257-1.2.257-1.926v-.319h-3.99v1.37h2.409c-.068.679-.386 1.261-.957 1.746-.571.482-1.215.724-1.932.724-.842 0-1.624-.322-2.345-.969-.771-.696-1.156-1.582-1.156-2.658 0-1.04.346-1.908 1.037-2.601.691-.703 1.548-1.055 2.57-1.055 1.137 0 2.102.526 2.895 1.581l1.037-.995c-.604-.689-1.219-1.188-1.845-1.495-.655-.307-1.359-.461-2.112-.461-1.404 0-2.597.49-3.576 1.47-.979.975-1.469 2.162-1.469 3.562 0 1.372.48 2.547 1.443 3.526.963.976 2.12 1.464 3.47 1.464zm18.337-8.464V55.76h-5.327v9.652h5.327v-1.369h-3.87v-3.226h3.757v-1.369h-3.757v-2.317m12.441-1.37v9.652h4.294v-1.371h-2.838v-8.281m16.205 1.37V55.76h-5.327v9.652h5.327v-1.369h-3.871v-3.226h3.758v-1.369h-3.758v-2.317m15.886 2.539l-.962-.394c-.7-.288-1.051-.668-1.051-1.139 0-.342.133-.624.399-.852.268-.229.604-.343 1.007-.343.329 0 .599.066.807.2.2.116.41.365.631.75l1.182-.701c-.624-1.079-1.493-1.619-2.606-1.619-.825 0-1.515.246-2.068.737-.555.488-.832 1.095-.832 1.817 0 1.074.66 1.891 1.981 2.448l.932.388c.242.104.449.214.625.328.176.113.316.238.428.369.11.131.192.274.244.432.052.156.078.327.078.515 0 .467-.15.853-.45 1.155-.3.305-.678.457-1.131.457-.575 0-1.012-.209-1.312-.626-.167-.217-.284-.608-.351-1.175l-1.476.325c.134.899.47 1.6 1.007 2.097.546.499 1.237.749 2.074.749.885 0 1.624-.293 2.221-.877.592-.579.889-1.313.889-2.202 0-.663-.183-1.224-.546-1.681-.362-.455-.938-.841-1.72-1.158z"/>
</svg>
